:SAMPLES-PER-SECOND 30
:FRAME-RANGE 1-4244
:FULLY-SPECIFIED
:DEGREES
3979
root  -3.07235 37.4766 17.7347 -3.77307 -19.3574 6.49707
RightUpLeg  -9.84777 -9.22563 -8.52985
RightLeg  68.4437 3.86591 10.0446
RightFoot  7.23021 -3.20028 19.7031
RightToes  -3.31784e-009 0 -3.6325e-017
Spine  17.1225 3.95995 -5.7109
Spine1  -2.41956 4.90855 -12.7515
HEad  -15.083 57.2346 -25.893
LeftShoulder1  1.1789 0.483775 -32.9712
LeftArm  -14.2418 2.85067 -22.1576
LeftForeArm  3.90914 4.82242 -16.4644
LeftHand  0.127262 2.45432 -5.70852
RightShoulder  9.40894 14.8192 44.8559
RightArm  27.7376 -2.21704 22.0862
RightForeArm  4.86213 12.281 13.3182
RightHand  0.285137 4.09975 3.21239
LeftUpLeg  -21.4922 1.92294 -13.6169
LeftLeg  29.9582 7.26748 4.88318
LeftFoot  -7.77278 -0.100813 4.73671
LeftToes  1.0277e-010 -6.71454e-011 3.04227e-011
3980
root  -3.73105 37.6498 18.8231 -4.17334 -17.9451 6.271
RightUpLeg  -15.4164 -9.08392 -9.00248
RightLeg  71.7857 1.3775 3.83417
RightFoot  4.16865 -1.99392 14.7776
RightToes  -3.31784e-009 0 -3.6325e-017
Spine  17.8258 3.22 -6.47598
Spine1  -2.38548 3.77922 -11.411
HEad  -11.9468 56.2197 -23.8688
LeftShoulder1  1.34428 0.0494916 -32.8587
LeftArm  -13.3126 -2.47755 -26.6715
LeftForeArm  8.01798 3.8705 -16.4486
LeftHand  0.165407 1.60657 -5.43612
RightShoulder  9.03579 14.2385 44.4761
RightArm  20.1756 -1.81013 20.8399
RightForeArm  12.6305 7.10971 15.5347
RightHand  0.291224 4.03969 3.31185
LeftUpLeg  -18.6721 1.93342 -13.022
LeftLeg  30.11 6.10717 4.19613
LeftFoot  -9.93054 0.0100725 4.03358
LeftToes  1.0277e-010 -6.71454e-011 3.04227e-011
3981
root  -4.36925 37.9225 19.9749 -4.1084 -16.3825 5.64694
RightUpLeg  -20.062 -9.43236 -9.24819
RightLeg  70.3876 -0.295242 -1.74451
RightFoot  2.98102 -1.428 11.4932
RightToes  -3.31784e-009 0 -3.6325e-017
Spine  17.9359 2.3018 -6.74611
Spine1  -2.43085 2.5962 -9.7167
HEad  -8.98703 55.1793 -21.7939
LeftShoulder1  1.4757 -0.333715 -32.4041
LeftArm  -7.70964 -7.03658 -31.3567
LeftForeArm  10.6884 0.195421 -16.6968
LeftHand  0.190851 0.564555 -4.7162
RightShoulder  8.61702 13.5179 44.2049
RightArm  13.3603 -1.75379 19.4192
RightForeArm  17.6148 2.93969 16.3613
RightHand  0.289163 3.9611 3.31965
LeftUpLeg  -15.5049 1.96109 -12.0129
LeftLeg  28.9504 4.89354 3.30282
LeftFoot  -11.5833 0.0774841 3.70925
LeftToes  1.0277e-010 -6.71454e-011 3.04227e-011
3982
root  -5.00525 38.2792 21.1607 -3.81885 -15.4153 4.96594
RightUpLeg  -23.4489 -9.40562 -9.29654
RightLeg  64.5954 -1.36892 -3.74727
RightFoot  1.62813 -1.00508 8.92324
RightToes  -3.31784e-009 0 -3.6325e-017
Spine  17.5263 1.58834 -6.84982
Spine1  -2.2508 1.73118 -8.03569
HEad  -6.62658 54.1328 -19.9278
LeftShoulder1  1.54528 -0.564408 -31.9371
LeftArm  2.62853 -10.9106 -35.7518
LeftForeArm  11.0642 -5.87454 -15.9044
LeftHand  0.135018 -0.034675 -2.91076
RightShoulder  8.16357 12.728 43.9091
RightArm  8.1467 -2.00035 18.1151
RightForeArm  19.0794 0.185826 16.4824
RightHand  0.227778 3.6032 2.68635
LeftUpLeg  -12.0957 2.63381 -10.6661
LeftLeg  26.7649 3.18838 2.11806
LeftFoot  -12.5887 0.111509 3.29247
LeftToes  1.0277e-010 -6.71454e-011 3.04227e-011
3983
root  -5.62418 38.6269 22.3551 -3.42761 -14.6291 4.08273
RightUpLeg  -25.1277 -9.68186 -9.04352
RightLeg  54.8011 -2.90718 -4.8259
RightFoot  0.624693 -1.02277 9.77715
RightToes  -3.31784e-009 0 -3.6325e-017
Spine  17.0416 0.88434 -6.39658
Spine1  -2.07478 1.01239 -6.58767
HEad  -4.30709 52.2602 -17.6176
LeftShoulder1  1.56248 -0.705998 -31.0663
LeftArm  14.8951 -13.4206 -39.9799
LeftForeArm  7.66181 -13.5684 -12.2909
LeftHand  0.0785064 -0.874041 -1.37564
RightShoulder  7.7026 11.8729 43.7317
RightArm  4.8807 -2.59619 16.95
RightForeArm  18.7734 -1.01509 16.363
RightHand  0.262017 3.72373 3.07787
LeftUpLeg  -8.56773 3.69493 -8.94214
LeftLeg  24.008 1.47013 0.983413
LeftFoot  -13.274 0.129718 2.96163
LeftToes  1.0277e-010 -6.71454e-011 3.04227e-011
3984
root  -6.24593 38.9151 23.5774 -3.0675 -14.3007 3.43491
RightUpLeg  -25.0318 -10.336 -8.6776
RightLeg  41.2442 -4.4743 -4.46847
RightFoot  1.33528 -1.06028 9.60638
RightToes  -3.31784e-009 0 -3.6325e-017
Spine  16.3974 0.362765 -5.97555
Spine1  -1.90949 0.504998 -5.38659
HEad  -2.24692 49.3742 -15.4035
LeftShoulder1  1.54705 -0.765642 -30.1783
LeftArm  25.6214 -14.7427 -43.1964
LeftForeArm  1.59397 -20.9976 -6.19593
LeftHand  0.0664343 -1.70066 -0.940636
RightShoulder  7.29406 11.1015 43.5985
RightArm  4.29961 -3.36408 16.0062
RightForeArm  17.6062 -0.984012 16.3684
RightHand  0.256585 3.61036 3.05492
LeftUpLeg  -4.95613 4.51622 -7.25804
LeftLeg  21.0322 0.0904702 -0.00636057
LeftFoot  -13.8215 0.134124 2.3609
LeftToes  1.0277e-010 -6.71454e-011 3.04227e-011
3985
root  -6.89358 39.104 24.846 -2.63354 -14.1573 2.97903
RightUpLeg  -23.3213 -12.2692 -7.80732
RightLeg  24.8802 -7.39334 -3.9409
RightFoot  2.04298 -1.22622 10.5423
RightToes  -3.31784e-009 0 -3.6325e-017
Spine  15.456 -0.0435856 -5.68174
Spine1  -1.60119 0.0807915 -4.17371
HEad  0.184083 45.4839 -12.8624
LeftShoulder1  1.52291 -0.776532 -29.5124
LeftArm  22.0383 -15.794 -44.6232
LeftForeArm  7.23723 -26.5157 -5.31549
LeftHand  0.0862087 -2.11577 -1.15988
RightShoulder  6.88216 10.3258 43.4407
RightArm  4.74913 -3.97908 15.2734
RightForeArm  17.6121 -0.649733 16.3711
RightHand  0.280892 3.67999 3.33719
LeftUpLeg  -1.395 5.06675 -5.75064
LeftLeg  17.9594 -0.770068 -0.721683
LeftFoot  -14.198 0.143529 2.33637
LeftToes  1.0277e-010 -6.71454e-011 3.04227e-011
3986
root  -7.60899 39.1296 26.2112 -2.51001 -14.1468 2.8027
RightUpLeg  -20.5037 -14.4425 -7.33393
RightLeg  9.66523 -9.52251 -0.68917
RightFoot  1.34752 -1.17492 10.6218
RightToes  -3.31784e-009 0 -3.6325e-017
Spine  14.3447 -0.407542 -5.50633
Spine1  -1.03088 -0.29723 -3.37078
HEad  2.3612 41.3419 -10.7813
LeftShoulder1  1.52501 -0.822931 -29.1737
LeftArm  16.5704 -16.1841 -44.7363
LeftForeArm  13.0648 -32.0502 -6.32043
LeftHand  0.122598 -2.31954 -1.66178
RightShoulder  6.60088 9.78508 43.3597
RightArm  5.60486 -4.63855 14.7661
RightForeArm  18.168 -0.380056 16.3894
RightHand  0.273111 3.86812 3.15858
LeftUpLeg  2.26301 5.62737 -4.41022
LeftLeg  15.6306 -1.62719 -1.29081
LeftFoot  -15.2996 0.155254 1.83471
LeftToes  1.0277e-010 -6.71454e-011 3.04227e-011
3987
root  -8.42799 38.9842 27.6736 -3.0625 -14.1184 2.65546
RightUpLeg  -16.7516 -10.4419 -9.17182
RightLeg  -0.830686 -15.4777 3.70659
RightFoot  2.03984 -1.33449 11.4601
RightToes  -3.31784e-009 0 -3.6325e-017
Spine  13.3206 -0.667249 -5.49425
Spine1  -0.175893 -0.632552 -2.6393
HEad  4.53516 37.5526 -8.9811
LeftShoulder1  1.52976 -0.861672 -28.9661
LeftArm  12.825 -16.0532 -44.2837
LeftForeArm  16.6968 -36.6387 -7.3316
LeftHand  0.145319 -2.40366 -1.97619
RightShoulder  6.40958 9.41039 43.3253
RightArm  6.67333 -5.43567 14.4591
RightForeArm  17.7686 0.0507692 16.4448
RightHand  0.287276 3.92874 3.30999
LeftUpLeg  6.42971 6.13577 -3.03163
LeftLeg  14.2439 -2.5784 -1.42641
LeftFoot  -17.1377 0.151945 0.969969
LeftToes  1.0277e-010 -6.71454e-011 3.04227e-011
3988
root  -9.31292 38.7245 29.1458 -3.46057 -14.3877 2.38889
RightUpLeg  -15.2733 -9.38946 -8.30454
RightLeg  -3.05108 -16.0126 4.0524
RightFoot  2.08408 -1.25652 10.7678
RightToes  -3.31784e-009 0 -3.6325e-017
Spine  12.416 -0.771763 -5.18847
Spine1  0.33418 -0.818947 -2.04969
HEad  6.7331 34.4702 -7.39358
LeftShoulder1  1.47607 -0.757279 -28.5545
LeftArm  10.4378 -15.1771 -43.6418
LeftForeArm  18.8643 -39.7839 -8.12387
LeftHand  0.139601 -2.3114 -1.92129
RightShoulder  6.18766 8.94597 43.3921
RightArm  7.09255 -6.04456 14.4208
RightForeArm  17.5109 0.0521156 16.4985
RightHand  0.311223 3.95608 3.59539
LeftUpLeg  9.88175 7.08756 -1.30667
LeftLeg  14.2004 -3.78525 -1.50443
LeftFoot  -19.3401 0.106961 -0.129683
LeftToes  1.0277e-010 -6.71454e-011 3.04227e-011
3989
root  -10.1805 38.6081 30.5733 -3.3811 -14.75 1.48856
RightUpLeg  -15.2874 -8.30452 -6.4682
RightLeg  0.473457 -14.8147 2.96342
RightFoot  5.93795 -1.17307 7.97687
RightToes  -3.31784e-009 0 -3.6325e-017
Spine  11.7776 -0.945695 -3.52256
Spine1  0.917757 -1.01446 -1.45226
HEad  8.35346 32.0906 -6.24974
LeftShoulder1  1.42277 -0.622134 -28.392
LeftArm  8.62492 -13.475 -42.3296
LeftForeArm  19.7248 -41.9032 -8.74358
LeftHand  0.144914 -2.17936 -2.04801
RightShoulder  5.89484 8.28693 43.668
RightArm  7.34142 -6.31752 14.478
RightForeArm  17.4431 0.0577498 16.5266
RightHand  0.333963 4.01249 3.85013
LeftUpLeg  12.6502 7.42389 0.755279
LeftLeg  14.3902 -4.3411 -1.11338
LeftFoot  -20.1657 -0.0737261 -2.52253
LeftToes  1.0277e-010 -6.71454e-011 3.04227e-011
3990
root  -11.0115 38.5194 31.976 -3.26184 -15.2849 0.0496216
RightUpLeg  -16.4795 -8.79426 -4.45532
RightLeg  6.45712 -12.4141 2.53825
RightFoot  11.1202 -0.147981 1.13162
RightToes  -3.31784e-009 0 -3.6325e-017
Spine  11.7584 -1.21726 -0.420743
Spine1  1.44619 -1.04397 -1.45359
HEad  9.13708 30.4682 -5.83272
LeftShoulder1  1.40795 -0.483048 -29.2395
LeftArm  7.82742 -11.6163 -39.7542
LeftForeArm  19.4248 -42.6136 -9.00131
LeftHand  0.15454 -2.15652 -2.20474
RightShoulder  5.72906 7.7504 44.5071
RightArm  7.28033 -6.10594 14.2885
RightForeArm  16.9649 0.0493191 16.5905
RightHand  0.327582 3.9218 3.81464
LeftUpLeg  14.0897 6.29804 2.88907
LeftLeg  17.1263 -3.25283 -0.755256
LeftFoot  -20.2885 -0.392508 -6.56517
LeftToes  1.0277e-010 -6.71454e-011 3.04227e-011
3991
root  -11.8111 38.3667 33.3037 -3.00439 -16.5776 -1.9021
RightUpLeg  -17.9454 -13.0423 -0.350326
RightLeg  14.0428 -6.70388 0.78759
RightFoot  6.91027 -0.00502333 0.326485
RightToes  -3.31784e-009 0 -3.6325e-017
Spine  12.1777 -1.48102 3.23658
Spine1  1.7231 -0.654039 -2.09797
HEad  9.47428 29.8441 -6.51278
LeftShoulder1  1.37745 -0.298355 -30.1647
LeftArm  8.0211 -9.37083 -37.8208
LeftForeArm  18.0441 -40.3317 -8.34783
LeftHand  0.110254 -2.07023 -1.54642
RightShoulder  6.03196 8.15214 45.2739
RightArm  5.18485 -5.06393 14.2982
RightForeArm  17.9506 -1.61338 16.6186
RightHand  0.326513 3.96547 3.78052
LeftUpLeg  12.5674 4.48146 4.91778
LeftLeg  25.3447 -0.308412 0.178602
LeftFoot  -18.81 -0.722673 -12.7506
LeftToes  1.0277e-010 -6.71454e-011 3.04227e-011
